<?xml version="1.0" encoding="UTF-8" standalone="no"?>
<!-- Created with Inkscape (http://www.inkscape.org/) -->

<svg
   xmlns:dc="http://purl.org/dc/elements/1.1/"
   xmlns:cc="http://creativecommons.org/ns#"
   xmlns:rdf="http://www.w3.org/1999/02/22-rdf-syntax-ns#"
   xmlns:svg="http://www.w3.org/2000/svg"
   xmlns="http://www.w3.org/2000/svg"
   xmlns:xlink="http://www.w3.org/1999/xlink"
   xmlns:sodipodi="http://sodipodi.sourceforge.net/DTD/sodipodi-0.dtd"
   xmlns:inkscape="http://www.inkscape.org/namespaces/inkscape"
   width="64px"
   height="64px"
   id="svg2838"
   version="1.1"
   inkscape:version="0.47 r22583"
   sodipodi:docname="TransportDroidIL_Logo.svg">
  <defs
     id="defs2840">
    <linearGradient
       id="linearGradient4343">
      <stop
         style="stop-color:#a8a9e3;stop-opacity:1;"
         offset="0"
         id="stop4345" />
      <stop
         style="stop-color:#2e3091;stop-opacity:1;"
         offset="1"
         id="stop4347" />
    </linearGradient>
    <linearGradient
       id="linearGradient4337">
      <stop
         id="stop4339"
         offset="0"
         style="stop-color:#b5b5e7;stop-opacity:1;" />
      <stop
         id="stop4341"
         offset="1"
         style="stop-color:#2e3091;stop-opacity:1;" />
    </linearGradient>
    <linearGradient
       id="linearGradient4239">
      <stop
         style="stop-color:#b5b5e7;stop-opacity:1;"
         offset="0"
         id="stop4241" />
      <stop
         style="stop-color:#2e3091;stop-opacity:1;"
         offset="1"
         id="stop4243" />
    </linearGradient>
    <inkscape:path-effect
       effect="sketch"
       id="path-effect3745"
       is_visible="true"
       nbiter_approxstrokes="5"
       strokelength="100"
       strokelength_rdm="0.3;1"
       strokeoverlap="0.3"
       strokeoverlap_rdm="0.3;1"
       ends_tolerance="0.1;1"
       parallel_offset="5;1"
       tremble_size="5;1"
       tremble_frequency="1"
       nbtangents="5"
       tgt_places_rdmness="1;1"
       tgtscale="10"
       tgtlength="100"
       tgtlength_rdm="0.3;1" />
    <inkscape:path-effect
       effect="rough_hatches"
       id="path-effect3743"
       is_visible="true"
       direction="22.85208,16.44241 , 7.75336,0"
       dist_rdm="75;1"
       growth="0"
       do_bend="true"
       bender="22.85208,21.44241 , 5,0"
       bottom_edge_variation="3.6605589;1"
       top_edge_variation="3.6605589;1"
       bottom_tgt_variation="0;1"
       top_tgt_variation="0;1"
       scale_bf="1"
       scale_bb="1"
       scale_tf="1"
       scale_tb="1"
       top_smth_variation="0;1"
       bottom_smth_variation="0;1"
       fat_output="true"
       stroke_width_top="1"
       stroke_width_bottom="1"
       front_thickness="1"
       back_thickness="0.25" />
    <inkscape:path-effect
       effect="gears"
       id="path-effect3741"
       is_visible="true"
       teeth="10"
       phi="5" />
    <linearGradient
       id="linearGradient3673">
      <stop
         style="stop-color:#05f07e;stop-opacity:1;"
         offset="0"
         id="stop3675" />
      <stop
         style="stop-color:#038f4b;stop-opacity:1;"
         offset="1"
         id="stop3677" />
    </linearGradient>
    <inkscape:perspective
       sodipodi:type="inkscape:persp3d"
       inkscape:vp_x="0 : 32 : 1"
       inkscape:vp_y="0 : 1000 : 0"
       inkscape:vp_z="64 : 32 : 1"
       inkscape:persp3d-origin="32 : 21.333333 : 1"
       id="perspective2846" />
    <inkscape:perspective
       id="perspective2856"
       inkscape:persp3d-origin="0.5 : 0.33333333 : 1"
       inkscape:vp_z="1 : 0.5 : 1"
       inkscape:vp_y="0 : 1000 : 0"
       inkscape:vp_x="0 : 0.5 : 1"
       sodipodi:type="inkscape:persp3d" />
    <inkscape:perspective
       id="perspective3650"
       inkscape:persp3d-origin="0.5 : 0.33333333 : 1"
       inkscape:vp_z="1 : 0.5 : 1"
       inkscape:vp_y="0 : 1000 : 0"
       inkscape:vp_x="0 : 0.5 : 1"
       sodipodi:type="inkscape:persp3d" />
    <inkscape:perspective
       id="perspective3650-9"
       inkscape:persp3d-origin="0.5 : 0.33333333 : 1"
       inkscape:vp_z="1 : 0.5 : 1"
       inkscape:vp_y="0 : 1000 : 0"
       inkscape:vp_x="0 : 0.5 : 1"
       sodipodi:type="inkscape:persp3d" />
    <filter
       inkscape:collect="always"
       id="filter3737">
      <feGaussianBlur
         inkscape:collect="always"
         stdDeviation="0.50714272"
         id="feGaussianBlur3739" />
    </filter>
    <inkscape:perspective
       id="perspective3793"
       inkscape:persp3d-origin="0.5 : 0.33333333 : 1"
       inkscape:vp_z="1 : 0.5 : 1"
       inkscape:vp_y="0 : 1000 : 0"
       inkscape:vp_x="0 : 0.5 : 1"
       sodipodi:type="inkscape:persp3d" />
    <radialGradient
       inkscape:collect="always"
       xlink:href="#linearGradient3673-9"
       id="radialGradient3679-1"
       cx="25.200798"
       cy="21.442394"
       fx="25.200798"
       fy="21.442394"
       r="17.855438"
       gradientTransform="matrix(1,0,0,1.0250534,0,-0.53720483)"
       gradientUnits="userSpaceOnUse" />
    <linearGradient
       id="linearGradient3673-9">
      <stop
         style="stop-color:#05f07e;stop-opacity:1;"
         offset="0"
         id="stop3675-4" />
      <stop
         style="stop-color:#038f4b;stop-opacity:1;"
         offset="1"
         id="stop3677-0" />
    </linearGradient>
    <filter
       inkscape:collect="always"
       id="filter3823"
       x="-0.18853945"
       width="1.3770789"
       y="-0.18393135"
       height="1.3678627">
      <feGaussianBlur
         inkscape:collect="always"
         stdDeviation="2.8053789"
         id="feGaussianBlur3825" />
    </filter>
    <inkscape:perspective
       id="perspective3840"
       inkscape:persp3d-origin="0.5 : 0.33333333 : 1"
       inkscape:vp_z="1 : 0.5 : 1"
       inkscape:vp_y="0 : 1000 : 0"
       inkscape:vp_x="0 : 0.5 : 1"
       sodipodi:type="inkscape:persp3d" />
    <radialGradient
       inkscape:collect="always"
       xlink:href="#linearGradient3673-6"
       id="radialGradient3679-4"
       cx="25.200798"
       cy="21.442394"
       fx="25.200798"
       fy="21.442394"
       r="17.855438"
       gradientTransform="matrix(1,0,0,1.0250534,0,-0.53720483)"
       gradientUnits="userSpaceOnUse" />
    <linearGradient
       id="linearGradient3673-6">
      <stop
         style="stop-color:#05f07e;stop-opacity:1;"
         offset="0"
         id="stop3675-6" />
      <stop
         style="stop-color:#038f4b;stop-opacity:1;"
         offset="1"
         id="stop3677-3" />
    </linearGradient>
    <inkscape:perspective
       id="perspective3946"
       inkscape:persp3d-origin="0.5 : 0.33333333 : 1"
       inkscape:vp_z="1 : 0.5 : 1"
       inkscape:vp_y="0 : 1000 : 0"
       inkscape:vp_x="0 : 0.5 : 1"
       sodipodi:type="inkscape:persp3d" />
    <radialGradient
       r="17.855438"
       fy="21.442394"
       fx="25.200798"
       cy="21.442394"
       cx="25.200798"
       gradientTransform="matrix(1,0,0,1.0250534,0,-0.5372049)"
       gradientUnits="userSpaceOnUse"
       id="radialGradient3849-9"
       xlink:href="#linearGradient3673-6-8"
       inkscape:collect="always" />
    <linearGradient
       id="linearGradient3673-6-8">
      <stop
         style="stop-color:#05f07e;stop-opacity:1;"
         offset="0"
         id="stop3675-6-9" />
      <stop
         style="stop-color:#038f4b;stop-opacity:1;"
         offset="1"
         id="stop3677-3-7" />
    </linearGradient>
    <clipPath
       clipPathUnits="userSpaceOnUse"
       id="clipPath3997">
      <path
         style="fill:url(#radialGradient4001);fill-opacity:1;fill-rule:evenodd;stroke:none"
         d="m 9.8771638,5.3972514 10.4705022,16.1237156 -8.406904,12.946109 2.439999,0 0,0.739295 -0.547686,0 0,2.28231 0.547686,0 0,-0.445945 c 0.02947,-0.25267 0.182198,-0.320027 0.356076,-0.356082 l 1.116878,-0.01241 c -0.250946,0.08559 -0.410011,0.171193 -0.3695,0.256792 l -0.0064,0.557633 0.356104,0 0,-2.282312 -1.097081,0 -0.0099,-0.775762 1.681294,0.01962 c 0.114836,0 0.167061,0.06265 0.156617,0.187943 l 0.0083,2.850502 0.491712,0 1.042819,-1.519278 -1.039426,-1.515888 1.046213,0 0.515464,0.752857 0.517176,-0.752857 1.041109,0 -1.037716,1.512498 1.044501,1.522668 0.01665,0 c 0.369881,-0.09546 0.77343,-0.802262 5.38561,-7.884668 l 4.468282,6.9796 c 0.321347,0.340399 0.429425,0.822948 1.14963,0.897416 l 9.969998,0.0076 -10.419635,-15.843936 2.648578,-4.077981 -4.630769,0 0,-0.386602 11.006328,-2.48e-4 c 0.861535,0 1.356491,-0.814408 1.395498,-1.434014 l 0,-2.209676 -9.844805,0 0,-0.386603 8.449307,-4.7e-4 c 0.561878,0 1.347817,-0.551961 1.356491,-1.472199 l 0.03902,-2.5578522 -7.364115,0 0,-0.3882988 5.968617,1.58e-5 c 0.581882,-0.038742 1.356492,-0.5914202 1.395385,-1.4342571 l 0,-1.8993603 -8.67792,0.019393 c 0,-0.060581 -1.677574,0 -2.441713,1.0961833 L 25.500587,13.536202 20.895546,6.5109313 C 19.93847,5.3560056 18.453863,5.3560056 18.453863,5.4165847 L 9.8770652,5.3971918 z m 9.2716872,32.0914296 -0.52054,-0.761333 -0.522251,0.761333 1.042791,0 z m -7.68797,-2.28231 -1.4819823,2.28231 3.1148833,0 0,-2.28231 -1.632901,0 z"
         id="path3999"
         sodipodi:nodetypes="cccccccccccccccccccccccccccccccccccccccccccccccccccccccccccccccccc" />
    </clipPath>
    <radialGradient
       inkscape:collect="always"
       xlink:href="#linearGradient3673-6-8"
       id="radialGradient4001"
       gradientUnits="userSpaceOnUse"
       gradientTransform="matrix(0.8767131,0,0,0.89867774,3.437292,2.1725938)"
       cx="25.200798"
       cy="21.442394"
       fx="25.200798"
       fy="21.442394"
       r="17.855438" />
    <radialGradient
       inkscape:collect="always"
       xlink:href="#linearGradient3673-6"
       id="radialGradient4010"
       gradientUnits="userSpaceOnUse"
       gradientTransform="matrix(1.1413678,1.6380318,-1.0130577,0.70589066,14.976391,-26.790325)"
       cx="15.844125"
       cy="15.785174"
       fx="15.844125"
       fy="15.785174"
       r="17.855438" />
    <inkscape:perspective
       sodipodi:type="inkscape:persp3d"
       inkscape:vp_x="0 : 0.5 : 1"
       inkscape:vp_y="0 : 1000 : 0"
       inkscape:vp_z="1 : 0.5 : 1"
       inkscape:persp3d-origin="0.5 : 0.33333333 : 1"
       id="perspective2840" />
    <inkscape:perspective
       sodipodi:type="inkscape:persp3d"
       inkscape:vp_x="0 : 0.5 : 1"
       inkscape:vp_y="0 : 1000 : 0"
       inkscape:vp_z="1 : 0.5 : 1"
       inkscape:persp3d-origin="0.5 : 0.33333333 : 1"
       id="perspective2824" />
    <inkscape:perspective
       id="perspective10"
       inkscape:persp3d-origin="372.04724 : 350.78739 : 1"
       inkscape:vp_z="744.09448 : 526.18109 : 1"
       inkscape:vp_y="0 : 1000 : 0"
       inkscape:vp_x="0 : 526.18109 : 1"
       sodipodi:type="inkscape:persp3d" />
    <inkscape:perspective
       id="perspective4055"
       inkscape:persp3d-origin="0.5 : 0.33333333 : 1"
       inkscape:vp_z="1 : 0.5 : 1"
       inkscape:vp_y="0 : 1000 : 0"
       inkscape:vp_x="0 : 0.5 : 1"
       sodipodi:type="inkscape:persp3d" />
    <inkscape:perspective
       id="perspective4069"
       inkscape:persp3d-origin="0.5 : 0.33333333 : 1"
       inkscape:vp_z="1 : 0.5 : 1"
       inkscape:vp_y="0 : 1000 : 0"
       inkscape:vp_x="0 : 0.5 : 1"
       sodipodi:type="inkscape:persp3d" />
    <filter
       inkscape:collect="always"
       id="filter4093"
       x="-0.083670635"
       width="1.1673413"
       y="-0.14437796"
       height="1.2887559">
      <feGaussianBlur
         inkscape:collect="always"
         stdDeviation="0.95436818"
         id="feGaussianBlur4095" />
    </filter>
    <inkscape:perspective
       id="perspective4105"
       inkscape:persp3d-origin="0.5 : 0.33333333 : 1"
       inkscape:vp_z="1 : 0.5 : 1"
       inkscape:vp_y="0 : 1000 : 0"
       inkscape:vp_x="0 : 0.5 : 1"
       sodipodi:type="inkscape:persp3d" />
    <inkscape:perspective
       id="perspective4147"
       inkscape:persp3d-origin="0.5 : 0.33333333 : 1"
       inkscape:vp_z="1 : 0.5 : 1"
       inkscape:vp_y="0 : 1000 : 0"
       inkscape:vp_x="0 : 0.5 : 1"
       sodipodi:type="inkscape:persp3d" />
    <inkscape:perspective
       id="perspective4147-5"
       inkscape:persp3d-origin="0.5 : 0.33333333 : 1"
       inkscape:vp_z="1 : 0.5 : 1"
       inkscape:vp_y="0 : 1000 : 0"
       inkscape:vp_x="0 : 0.5 : 1"
       sodipodi:type="inkscape:persp3d" />
    <filter
       inkscape:collect="always"
       id="filter4235"
       x="-0.15625067"
       width="1.3125013"
       y="-0.38576145"
       height="1.7715229">
      <feGaussianBlur
         inkscape:collect="always"
         stdDeviation="8.3333672"
         id="feGaussianBlur4237" />
    </filter>
    <radialGradient
       inkscape:collect="always"
       xlink:href="#linearGradient4239"
       id="radialGradient4245"
       cx="43.387386"
       cy="949.76306"
       fx="43.387386"
       fy="949.76306"
       r="63.999985"
       gradientTransform="matrix(1.1771396,0.59583311,-0.18292325,0.36138675,166.04812,590.51968)"
       gradientUnits="userSpaceOnUse" />
    <clipPath
       clipPathUnits="userSpaceOnUse"
       id="clipPath4320">
      <g
         transform="matrix(0.18227286,0,0,0.4027044,57.022043,-295.33364)"
         id="g4322"
         inkscape:label="Layer 1"
         style="fill:#2c2d8a;fill-opacity:1">
        <path
           sodipodi:nodetypes="cccccccccccccccccccccccccccccccccccccccccccccccccccccscccccccccccccccccssssssscccccccccccccccccccccccccccsccccccccccccsscccsscccsscccsscccccccccccccccccssccccccccccccccccsssscccccccsscccsscccsccccccccccccccccccccccsccccccccccccccccscccccccsscccsscccsscccsscc"
           id="path4324"
           d="m 93.156375,992.04097 c -11.071638,-3.86932 -22.140093,-7.74769 -33.16347,-11.75268 l -0.105171,-0.0497 36.94958,-0.0704 -0.350566,-0.13291 c -9.690749,-3.66269 -19.189763,-7.81848 -28.85705,-11.53825 -0.03556,0 -0.06455,-0.0315 -0.06455,-0.0704 l 0,-0.0696 27.519373,-0.008 C 82.708571,963.13591 69.876803,958.87406 57.80518,952.95152 l -1.030898,-0.52915 -0.443953,-0.36848 -0.443952,-0.3684 -0.201694,-0.37038 -0.201684,-0.37056 -0.03062,-0.49542 -0.03062,-0.49542 0.149447,-0.39566 0.14944,-0.39583 0.281814,-0.43584 0.281806,-0.43593 0.644885,-0.64648 0.644884,-0.64648 0.70846,-0.53196 c 2.339237,-1.75665 5.833098,-3.66277 10.316772,-5.62864 l 0.858846,-0.37652 1.384768,0.0671 c 21.225206,1.03377 40.013179,6.45335 49.607909,14.30994 l 0.57128,0.46774 0.0656,-0.0406 0.0655,-0.0406 -0.0428,0.0696 -0.0428,0.0696 0.47025,0.39184 c 0.25863,0.21552 0.92956,0.85943 1.49094,1.43101 l 1.02069,1.03915 0.47827,0.59585 c 0.26305,0.32771 0.73876,0.99018 1.05714,1.47202 l 0.57887,0.87625 0.35177,0.70092 c 0.7745,1.54344 1.18972,2.8335 1.38577,4.30568 l 0.0987,0.74135 0,0.87634 0,0.87616 -0.0995,0.73605 c -0.13597,1.00535 -0.26672,1.58198 -0.56424,2.48847 l -0.25311,0.77102 -0.48087,0.99441 -0.48086,0.99433 -0.58898,0.89829 c -0.69763,1.06393 -1.33917,1.87447 -2.29897,2.90442 l -0.70383,0.75544 -0.83445,0.73523 c -5.96118,5.25253 -14.95445,9.34261 -26.292127,11.95734 -1.779919,0.41057 -1.504026,0.39408 -2.246482,0.1334 l -1.6e-5,5e-4 0,-8e-5 z M 32.228137,991.20068 C 16.014919,987.06322 5.1048607,980.70566 1.3457314,973.20488 L 0.96799455,972.45109 0.68176628,971.62125 0.39553798,970.79131 0.25648944,970.10912 0.1174328,969.42693 0.05871641,968.61556 0,967.80419 l 0.05685367,-0.84286 0.05685368,-0.84285 0.14897769,-0.71874 C 0.89030267,962.37169 2.46962,959.68137 5.2341664,956.93131 l 0.8808189,-0.87625 0.8042851,-0.66918 c 0.4423654,-0.36807 1.0093714,-0.82471 1.2600297,-1.01471 0.2506501,-0.18992 0.4872816,-0.3708 0.5258482,-0.40187 6.3190017,-5.09601 22.0499127,-10.5929 34.7585387,-12.14587 0.527881,-0.0646 0.509027,-0.0166 -0.07013,0.17583 -1.442172,0.48092 -6.502578,2.43204 -9.062112,3.49406 -0.807208,0.33501 -3.108333,1.31699 -3.400481,1.45114 -0.115691,0.053 -0.620498,0.28247 -1.121807,0.50976 -7.431893,3.36845 -13.400889,6.87635 -17.4231,10.23941 l -0.806294,0.67415 -1.093057,1.0868 -1.0930639,1.08672 -0.5841271,0.73605 c -0.3212719,0.40477 -0.7712178,1.01985 -0.9998716,1.36695 l -0.4157446,0.6309 -0.3765624,0.77093 -0.3765625,0.7711 -0.204244,0.6309 -0.204244,0.6309 -0.1132538,0.66074 -0.1132619,0.66081 1.782e-4,0.63595 1.701e-4,0.63612 0.096862,0.59652 0.09687,0.59659 0.2159305,0.64433 0.2159388,0.6444 0.2833532,0.56345 c 0.3570119,0.70987 0.6835317,1.22468 1.2133562,1.91317 l 0.4174047,0.54249 0.072893,-0.0456 0.072892,-0.0456 -0.044223,0.0713 -0.044223,0.0713 0.5417299,0.55865 c 0.8716512,0.89904 2.0303402,1.88483 3.0657902,2.60828 1.511765,1.05631 3.863498,2.6232 3.937254,2.6232 l 0.08807,0 -0.02608,0.0423 -0.02608,0.0423 5.690826,3.79551 c 4.94354,3.29719 6.943081,4.6208 10.598732,7.01587 l 0.77125,0.50528 -0.105172,-0.008 c -0.05783,0 -0.468005,-0.0983 -0.911464,-0.21146 l 0,0 z m -4.627459,-3.60176 c 0,-0.0199 0.01579,-0.0348 0.03507,-0.0348 0.01927,0 0.03507,0.0149 0.03507,0.0348 0,0.019 -0.01579,0.0348 -0.03507,0.0348 -0.01927,0 -0.03507,-0.0158 -0.03507,-0.0348 z M 9.0207186,981.64058 c 0,-0.0191 0.015793,-0.0348 0.035066,-0.0348 0.019273,0 0.035067,0.0157 0.035067,0.0348 0,0.0199 -0.01571,0.0348 -0.035067,0.0348 -0.019273,0 -0.035066,-0.0157 -0.035066,-0.0348 z m 8.4836774,-0.77102 c 0,-0.0191 0.01579,-0.0348 0.03507,-0.0348 0.01927,0 0.03507,0.0157 0.03507,0.0348 0,0.0199 -0.01579,0.0348 -0.03507,0.0348 -0.01927,0 -0.03507,-0.0157 -0.03507,-0.0348 z m 35.372033,-3.16196 c -0.886926,-0.32862 -1.896556,-0.70373 -2.243614,-0.83366 -0.347059,-0.12984 -0.946526,-0.35124 -1.33215,-0.49186 -1.029336,-0.37544 -6.356217,-2.36534 -7.537154,-2.81568 -10.659991,-4.06481 -16.39741,-6.42352 -19.674676,-8.08844 l -1.059665,-0.53842 -0.517879,-0.35009 -0.517886,-0.35017 -0.548265,-0.54572 -0.548266,-0.54572 -0.28959,-0.42631 -0.289581,-0.42632 -0.207062,-0.52642 -0.207071,-0.52649 -0.03126,-0.73605 -0.03126,-0.73597 0.11416,-0.4907 0.114161,-0.4907 0.356534,-0.73224 0.356534,-0.73232 0.28499,-0.38928 c 0.837231,-1.14356 2.374151,-2.70531 3.491026,-3.54726 0.09964,-0.0754 0.541357,-0.40809 0.981585,-0.73986 4.330395,-3.26371 10.863287,-6.62644 20.806153,-10.70973 l 0.86488,-0.35514 0.817835,-0.10548 c 3.519517,-0.45424 10.598334,-1.0259 11.615246,-0.93823 l 0.280453,0.024 -1.016636,0.37586 c -14.575354,5.38825 -23.884633,11.5172 -25.51648,16.79931 l -0.145592,0.47131 -0.07702,0.65269 -0.07702,0.65261 0.07897,0.59304 0.07897,0.59303 0.168853,0.49633 c 0.228313,0.67117 0.62313,1.40656 1.101948,2.05254 l 0.397603,0.53636 0.548922,0.55036 c 0.748444,0.75038 1.393579,1.26429 2.767858,2.20484 1.980711,1.35568 9.348381,6.16142 10.681713,6.96749 0.127548,0.0771 0.700353,0.43759 1.272898,0.80118 0.895,0.56817 2.663149,1.66931 3.260388,2.03033 1.518091,0.91785 3.05327,1.86171 3.105685,1.90944 l 0.06657,0.0605 -0.06657,0 c -0.03661,0 -0.792274,-0.27187 -1.679208,-0.60041 l 0,8e-5 z m 0.245401,-0.48316 c 0,-0.0191 0.01571,-0.0348 0.03507,-0.0348 0.01927,0 0.03507,0.0157 0.03507,0.0348 0,0.0191 -0.01571,0.0348 -0.03507,0.0348 -0.01927,0 -0.03507,-0.0157 -0.03507,-0.0348 z M 9.7218489,974.98132 c 0,-0.019 0.015793,-0.0348 0.035067,-0.0348 0.019273,0 0.035067,0.0166 0.035067,0.0348 0,0.0199 -0.015793,0.0348 -0.035067,0.0348 -0.019273,0 -0.035067,-0.0166 -0.035067,-0.0348 z m 52.1641061,-8.87486 c -3.861215,-1.61462 -5.592847,-2.3476 -8.764125,-3.70975 -2.546582,-1.09376 -5.05817,-2.20599 -7.291758,-3.22883 -1.1825,-0.54157 -3.491553,-1.73004 -3.999219,-2.05833 l -0.493704,-0.31927 -0.478008,-0.47794 -0.478016,-0.47785 -0.272865,-0.55194 -0.27285,-0.55193 -0.02559,-0.56088 -0.0256,-0.56072 0.08462,-0.3892 0.08462,-0.38919 0.240487,-0.50595 0.240478,-0.50595 0.412659,-0.54555 0.412642,-0.54547 0.690085,-0.68111 c 2.879986,-2.84262 7.977452,-5.77464 16.150015,-9.28934 l 0.736182,-0.31652 4.206783,-0.0307 4.206784,-0.0307 0.730634,0.0564 0.730635,0.0563 -0.90591,0.34586 c -0.840908,0.32092 -3.207576,1.29229 -3.85067,1.58048 -5.101006,2.28538 -8.035239,3.92958 -10.634966,5.95925 l -0.583122,0.45524 -0.877296,0.87666 -0.877305,0.87658 -0.372497,0.54481 -0.372496,0.54489 -0.266913,0.57671 -0.26692,0.57671 -0.09395,0.38555 -0.09395,0.38547 0.0041,0.6309 0.0041,0.6309 0.191521,0.56072 c 0.232873,0.68186 0.409225,0.99184 0.954882,1.67834 l 0.419957,0.5284 0.578157,0.48689 c 0.468922,0.39499 2.214541,1.67602 4.267541,3.13196 1.229538,0.87194 6.955747,5.09054 7.140571,5.26057 l 0.102668,0.0945 -0.06762,-0.008 c -0.03717,0 -0.588193,-0.22496 -1.224476,-0.49103 l 1.6e-5,-8e-5 z m -28.045214,-1.77993 c 0,-0.019 0.01579,-0.0348 0.03507,-0.0348 0.01927,0 0.03507,0.0158 0.03507,0.0348 0,0.0199 -0.01579,0.0348 -0.03507,0.0348 -0.01927,0 -0.03507,-0.0158 -0.03507,-0.0348 z m 22.64652,-2.80383 c 0,-0.0199 0.01579,-0.0348 0.03507,-0.0348 0.01927,0 0.03507,0.0157 0.03507,0.0348 0,0.0191 -0.01579,0.0348 -0.03507,0.0348 -0.01927,0 -0.03507,-0.0157 -0.03507,-0.0348 z m -1.963169,-1.40192 c 0,-0.0199 0.01579,-0.0348 0.03507,-0.0348 0.01927,0 0.03507,0.0157 0.03507,0.0348 0,0.0191 -0.01579,0.0348 -0.03507,0.0348 -0.01927,0 -0.03507,-0.0157 -0.03507,-0.0348 z m 59.175408,-9.88377 c 0,-0.0191 0.0158,-0.0348 0.035,-0.0348 0.0193,0 0.035,0.0157 0.035,0.0348 0,0.0199 -0.0158,0.0348 -0.035,0.0348 -0.0193,0 -0.035,-0.0157 -0.035,-0.0348 z"
           style="fill:#2c2d8a;fill-opacity:1" />
      </g>
    </clipPath>
    <radialGradient
       inkscape:collect="always"
       xlink:href="#linearGradient4343"
       id="radialGradient4349"
       cx="34.734116"
       cy="952.5213"
       fx="34.734116"
       fy="952.5213"
       r="63.999985"
       gradientTransform="matrix(1.1169601,0.48516577,-0.26887636,0.60111484,252.04795,371.29383)"
       gradientUnits="userSpaceOnUse" />
    <radialGradient
       inkscape:collect="always"
       xlink:href="#linearGradient4343"
       id="radialGradient4351"
       gradientUnits="userSpaceOnUse"
       gradientTransform="matrix(1.1169601,0.48516577,-0.26887636,0.60111484,252.04795,371.29383)"
       cx="34.734116"
       cy="952.5213"
       fx="34.734116"
       fy="952.5213"
       r="63.999985" />
  </defs>
  <sodipodi:namedview
     id="base"
     pagecolor="#ffffff"
     bordercolor="#666666"
     borderopacity="1.0"
     inkscape:pageopacity="0.0"
     inkscape:pageshadow="2"
     inkscape:zoom="4"
     inkscape:cx="33.940032"
     inkscape:cy="13.520242"
     inkscape:current-layer="layer1"
     showgrid="true"
     inkscape:document-units="px"
     inkscape:grid-bbox="true"
     inkscape:snap-grids="false"
     inkscape:snap-to-guides="false"
     inkscape:snap-global="false"
     inkscape:window-width="1111"
     inkscape:window-height="900"
     inkscape:window-x="162"
     inkscape:window-y="105"
     inkscape:window-maximized="0"
     inkscape:snap-bbox="true"
     inkscape:snap-object-midpoints="true"
     inkscape:snap-bbox-midpoints="true" />
  <metadata
     id="metadata2843">
    <rdf:RDF>
      <cc:Work
         rdf:about="">
        <dc:format>image/svg+xml</dc:format>
        <dc:type
           rdf:resource="http://purl.org/dc/dcmitype/StillImage" />
        <dc:title></dc:title>
      </cc:Work>
    </rdf:RDF>
  </metadata>
  <g
     id="layer1"
     inkscape:label="Layer 1"
     inkscape:groupmode="layer">
    <g
       id="egged_logo"
       transform="matrix(0.96146824,0,0,0.96146824,11.345791,5.7711433)">
      <path
         sodipodi:nodetypes="cccccccccccccccccccccccccccccccccccccccccccccccccccccccccccccccccc"
         id="egged_logo_shadow"
         d="M 8.2848122,5.4944704 20.227718,23.885567 10.638602,38.65221 l 2.783121,0 0,0.843257 -0.624703,0 0,2.603258 0.624703,0 0,-0.508656 c 0.03362,-0.288201 0.20782,-0.36503 0.406149,-0.406156 l 1.273938,-0.01415 c -0.286235,0.09763 -0.467668,0.195267 -0.421461,0.292903 l -0.0073,0.63605 0.406181,0 0,-2.60326 -1.251357,0 -0.01124,-0.884853 1.917724,0.02238 c 0.130985,0 0.190554,0.07146 0.178641,0.214373 l 0.0095,3.251351 0.560859,0 1.189464,-1.732925 -1.185594,-1.729059 1.193336,0 0.58795,0.858727 0.589903,-0.858727 1.187514,0 -1.183643,1.725192 1.191382,1.736792 0.01899,0 c 0.421895,-0.10888 0.882192,-0.91508 6.142956,-8.993442 l 5.096629,7.961099 c 0.366537,0.388268 0.489813,0.938675 1.311296,1.023615 l 11.372019,0.0087 -11.884886,-18.071973 3.021032,-4.651444 -5.281967,0 0,-0.440967 12.554082,-2.83e-4 c 0.982688,0 1.547247,-0.928933 1.591739,-1.635671 l 0,-2.520409 -11.229221,0 0,-0.440969 9.637482,-5.36e-4 c 0.640892,0 1.537353,-0.62958 1.547247,-1.679225 l 0.04451,-2.9175476 -8.399686,0 0,-0.442903 6.807948,1.8e-5 c 0.663708,-0.04419 1.547247,-0.674588 1.591609,-1.635948 l 0,-2.166456 -9.898243,0.02212 c 0,-0.0691 -1.913482,0 -2.785077,1.250333 L 26.105264,14.777952 20.852644,6.7647604 C 19.76098,5.4474244 18.067601,5.4474244 18.067601,5.5165224 l -9.7829013,-0.02212 z m 10.5755088,36.6042546 -0.59374,-0.868395 -0.595692,0.868395 1.189432,0 z m -8.769083,-2.603258 -1.6903846,2.603258 3.5529106,0 0,-2.603258 -1.862526,0 z"
         style="opacity:0.7113821;fill:#000000;fill-opacity:1;fill-rule:evenodd;stroke:none;filter:url(#filter3823)" />
      <path
         sodipodi:nodetypes="cccccccccccccccccccccccccccccccccccccccccccccccccccccccccccccccccc"
         id="egged_logo_main"
         d="m 7.3454724,3.140917 11.9429056,18.391097 -9.5891157,14.766643 2.7831207,0 0,0.843257 -0.624703,0 0,2.603258 0.624703,0 0,-0.508656 c 0.03362,-0.288201 0.20782,-0.36503 0.406149,-0.406156 l 1.273938,-0.01415 c -0.286235,0.09763 -0.467668,0.195267 -0.421461,0.292903 l -0.0073,0.63605 0.406181,0 0,-2.60326 -1.251357,0 -0.01124,-0.884853 1.917724,0.02238 c 0.130985,0 0.190554,0.07146 0.178641,0.214373 l 0.0095,3.251351 0.560859,0 1.189464,-1.732925 -1.185594,-1.729059 1.193336,0 0.58795,0.858727 0.589903,-0.858727 1.187514,0 -1.183643,1.725192 1.191382,1.736792 0.01899,0 c 0.421895,-0.10888 0.882192,-0.91508 6.142956,-8.993442 l 5.096629,7.961099 c 0.366537,0.388268 0.489813,0.938675 1.311296,1.023615 l 11.372019,0.0087 -11.884886,-18.071973 3.021032,-4.651444 -5.281967,0 0,-0.440967 12.554082,-2.83e-4 c 0.982688,0 1.547247,-0.928933 1.591739,-1.635671 l 0,-2.520409 -11.229221,0 0,-0.440969 9.637482,-5.36e-4 c 0.640892,0 1.537353,-0.62958 1.547247,-1.679225 l 0.04451,-2.917548 -8.399686,0 0,-0.442903 6.807948,1.8e-5 c 0.663708,-0.04419 1.547247,-0.674588 1.591609,-1.635948 l 0,-2.166456 -9.898243,0.02212 c 0,-0.0691 -1.913482,0 -2.785077,1.250333 l -5.206864,8.011134 -5.25262,-8.013192 C 18.82164,3.093871 17.128261,3.093871 17.128261,3.162969 L 7.3453599,3.140849 z m 10.5755086,36.604255 -0.59374,-0.868395 -0.595692,0.868395 1.189432,0 z m -8.7690831,-2.603258 -1.6903843,2.603258 3.5529104,0 0,-2.603258 -1.8625261,0 z"
         style="fill:url(#radialGradient4010);fill-opacity:1;fill-rule:evenodd;stroke:none" />
      <path
         clip-path="url(#clipPath3997)"
         transform="matrix(1.140624,0,0,1.140624,-3.9206577,-3.0153175)"
         sodipodi:nodetypes="ccccsscccccccc"
         id="egged_logo_highlight"
         d="M 7.3454724,3.140917 19.288378,21.532014 7.4539517,39.741005 l 6.2797573,0.0042 c 0,0 1.077115,-4.125124 4.546015,-8.677919 C 22.02491,26.151877 28.309594,20.593029 32.012829,15.091565 36.624612,8.2403771 38.3588,3.1625801 38.3588,3.1625801 c 0,0 -5.200935,3.52e-4 -5.200935,3.52e-4 0,-0.0691 -1.913482,0 -2.785077,1.250333 L 25.165924,12.424399 19.913304,4.4112071 C 18.82164,3.093871 17.128261,3.093871 17.128261,3.162969 l -9.7829011,-0.02212 1.125e-4,6.8e-5 z"
         style="fill:#ffffff;fill-opacity:0.39647576;fill-rule:evenodd;stroke:none;filter:url(#filter3737)" />
    </g>
    <g
       transform="matrix(0.48514016,0,0,0.48514016,30.46679,-387.89816)"
       id="layer1-5-7"
       inkscape:label="Layer 1"
       style="fill:#ffffff;fill-opacity:1;opacity:0.67479675" />
    <g
       id="g4326"
       transform="matrix(0.75433862,0,0,0.76548675,-14.440314,-17.617539)"
       style="opacity:0.86403509">
      <g
         style="opacity:0.61842107;fill:#000000;fill-opacity:0.76076529;filter:url(#filter4235)"
         inkscape:label="Layer 1"
         id="layer1-5-5"
         transform="matrix(0.48514016,0,0,0.48514016,30.49224,-386.67716)">
        <path
           style="fill:#000000;fill-opacity:0.76076529"
           d="m 93.156375,992.04097 c -11.071638,-3.86932 -22.140093,-7.74769 -33.16347,-11.75268 l -0.105171,-0.0497 36.94958,-0.0704 -0.350566,-0.13291 c -9.690749,-3.66269 -19.189763,-7.81848 -28.85705,-11.53825 -0.03556,0 -0.06455,-0.0315 -0.06455,-0.0704 l 0,-0.0696 27.519373,-0.008 C 82.708571,963.13591 69.876803,958.87406 57.80518,952.95152 l -1.030898,-0.52915 -0.443953,-0.36848 -0.443952,-0.3684 -0.201694,-0.37038 -0.201684,-0.37056 -0.03062,-0.49542 -0.03062,-0.49542 0.149447,-0.39566 0.14944,-0.39583 0.281814,-0.43584 0.281806,-0.43593 0.644885,-0.64648 0.644884,-0.64648 0.70846,-0.53196 c 2.339237,-1.75665 5.833098,-3.66277 10.316772,-5.62864 l 0.858846,-0.37652 1.384768,0.0671 c 21.225206,1.03377 40.013179,6.45335 49.607909,14.30994 l 0.57128,0.46774 0.0656,-0.0406 0.0655,-0.0406 -0.0428,0.0696 -0.0428,0.0696 0.47025,0.39184 c 0.25863,0.21552 0.92956,0.85943 1.49094,1.43101 l 1.02069,1.03915 0.47827,0.59585 c 0.26305,0.32771 0.73876,0.99018 1.05714,1.47202 l 0.57887,0.87625 0.35177,0.70092 c 0.7745,1.54344 1.18972,2.8335 1.38577,4.30568 l 0.0987,0.74135 0,0.87634 0,0.87616 -0.0995,0.73605 c -0.13597,1.00535 -0.26672,1.58198 -0.56424,2.48847 l -0.25311,0.77102 -0.48087,0.99441 -0.48086,0.99433 -0.58898,0.89829 c -0.69763,1.06393 -1.33917,1.87447 -2.29897,2.90442 l -0.70383,0.75544 -0.83445,0.73523 c -5.96118,5.25253 -14.95445,9.34261 -26.292127,11.95734 -1.779919,0.41057 -1.504026,0.39408 -2.246482,0.1334 l -1.6e-5,5e-4 0,-8e-5 z M 32.228137,991.20068 C 16.014919,987.06322 5.1048607,980.70566 1.3457314,973.20488 L 0.96799455,972.45109 0.68176628,971.62125 0.39553798,970.79131 0.25648944,970.10912 0.1174328,969.42693 0.05871641,968.61556 0,967.80419 l 0.05685367,-0.84286 0.05685368,-0.84285 0.14897769,-0.71874 C 0.89030267,962.37169 2.46962,959.68137 5.2341664,956.93131 l 0.8808189,-0.87625 0.8042851,-0.66918 c 0.4423654,-0.36807 1.0093714,-0.82471 1.2600297,-1.01471 0.2506501,-0.18992 0.4872816,-0.3708 0.5258482,-0.40187 6.3190017,-5.09601 22.0499127,-10.5929 34.7585387,-12.14587 0.527881,-0.0646 0.509027,-0.0166 -0.07013,0.17583 -1.442172,0.48092 -6.502578,2.43204 -9.062112,3.49406 -0.807208,0.33501 -3.108333,1.31699 -3.400481,1.45114 -0.115691,0.053 -0.620498,0.28247 -1.121807,0.50976 -7.431893,3.36845 -13.400889,6.87635 -17.4231,10.23941 l -0.806294,0.67415 -1.093057,1.0868 -1.0930639,1.08672 -0.5841271,0.73605 c -0.3212719,0.40477 -0.7712178,1.01985 -0.9998716,1.36695 l -0.4157446,0.6309 -0.3765624,0.77093 -0.3765625,0.7711 -0.204244,0.6309 -0.204244,0.6309 -0.1132538,0.66074 -0.1132619,0.66081 1.782e-4,0.63595 1.701e-4,0.63612 0.096862,0.59652 0.09687,0.59659 0.2159305,0.64433 0.2159388,0.6444 0.2833532,0.56345 c 0.3570119,0.70987 0.6835317,1.22468 1.2133562,1.91317 l 0.4174047,0.54249 0.072893,-0.0456 0.072892,-0.0456 -0.044223,0.0713 -0.044223,0.0713 0.5417299,0.55865 c 0.8716512,0.89904 2.0303402,1.88483 3.0657902,2.60828 1.511765,1.05631 3.863498,2.6232 3.937254,2.6232 l 0.08807,0 -0.02608,0.0423 -0.02608,0.0423 5.690826,3.79551 c 4.94354,3.29719 6.943081,4.6208 10.598732,7.01587 l 0.77125,0.50528 -0.105172,-0.008 c -0.05783,0 -0.468005,-0.0983 -0.911464,-0.21146 l 0,0 z m -4.627459,-3.60176 c 0,-0.0199 0.01579,-0.0348 0.03507,-0.0348 0.01927,0 0.03507,0.0149 0.03507,0.0348 0,0.019 -0.01579,0.0348 -0.03507,0.0348 -0.01927,0 -0.03507,-0.0158 -0.03507,-0.0348 z M 9.0207186,981.64058 c 0,-0.0191 0.015793,-0.0348 0.035066,-0.0348 0.019273,0 0.035067,0.0157 0.035067,0.0348 0,0.0199 -0.01571,0.0348 -0.035067,0.0348 -0.019273,0 -0.035066,-0.0157 -0.035066,-0.0348 z m 8.4836774,-0.77102 c 0,-0.0191 0.01579,-0.0348 0.03507,-0.0348 0.01927,0 0.03507,0.0157 0.03507,0.0348 0,0.0199 -0.01579,0.0348 -0.03507,0.0348 -0.01927,0 -0.03507,-0.0157 -0.03507,-0.0348 z m 35.372033,-3.16196 c -0.886926,-0.32862 -1.896556,-0.70373 -2.243614,-0.83366 -0.347059,-0.12984 -0.946526,-0.35124 -1.33215,-0.49186 -1.029336,-0.37544 -6.356217,-2.36534 -7.537154,-2.81568 -10.659991,-4.06481 -16.39741,-6.42352 -19.674676,-8.08844 l -1.059665,-0.53842 -0.517879,-0.35009 -0.517886,-0.35017 -0.548265,-0.54572 -0.548266,-0.54572 -0.28959,-0.42631 -0.289581,-0.42632 -0.207062,-0.52642 -0.207071,-0.52649 -0.03126,-0.73605 -0.03126,-0.73597 0.11416,-0.4907 0.114161,-0.4907 0.356534,-0.73224 0.356534,-0.73232 0.28499,-0.38928 c 0.837231,-1.14356 2.374151,-2.70531 3.491026,-3.54726 0.09964,-0.0754 0.541357,-0.40809 0.981585,-0.73986 4.330395,-3.26371 10.863287,-6.62644 20.806153,-10.70973 l 0.86488,-0.35514 0.817835,-0.10548 c 3.519517,-0.45424 10.598334,-1.0259 11.615246,-0.93823 l 0.280453,0.024 -1.016636,0.37586 c -14.575354,5.38825 -23.884633,11.5172 -25.51648,16.79931 l -0.145592,0.47131 -0.07702,0.65269 -0.07702,0.65261 0.07897,0.59304 0.07897,0.59303 0.168853,0.49633 c 0.228313,0.67117 0.62313,1.40656 1.101948,2.05254 l 0.397603,0.53636 0.548922,0.55036 c 0.748444,0.75038 1.393579,1.26429 2.767858,2.20484 1.980711,1.35568 9.348381,6.16142 10.681713,6.96749 0.127548,0.0771 0.700353,0.43759 1.272898,0.80118 0.895,0.56817 2.663149,1.66931 3.260388,2.03033 1.518091,0.91785 3.05327,1.86171 3.105685,1.90944 l 0.06657,0.0605 -0.06657,0 c -0.03661,0 -0.792274,-0.27187 -1.679208,-0.60041 l 0,8e-5 z m 0.245401,-0.48316 c 0,-0.0191 0.01571,-0.0348 0.03507,-0.0348 0.01927,0 0.03507,0.0157 0.03507,0.0348 0,0.0191 -0.01571,0.0348 -0.03507,0.0348 -0.01927,0 -0.03507,-0.0157 -0.03507,-0.0348 z M 9.7218489,974.98132 c 0,-0.019 0.015793,-0.0348 0.035067,-0.0348 0.019273,0 0.035067,0.0166 0.035067,0.0348 0,0.0199 -0.015793,0.0348 -0.035067,0.0348 -0.019273,0 -0.035067,-0.0166 -0.035067,-0.0348 z m 52.1641061,-8.87486 c -3.861215,-1.61462 -5.592847,-2.3476 -8.764125,-3.70975 -2.546582,-1.09376 -5.05817,-2.20599 -7.291758,-3.22883 -1.1825,-0.54157 -3.491553,-1.73004 -3.999219,-2.05833 l -0.493704,-0.31927 -0.478008,-0.47794 -0.478016,-0.47785 -0.272865,-0.55194 -0.27285,-0.55193 -0.02559,-0.56088 -0.0256,-0.56072 0.08462,-0.3892 0.08462,-0.38919 0.240487,-0.50595 0.240478,-0.50595 0.412659,-0.54555 0.412642,-0.54547 0.690085,-0.68111 c 2.879986,-2.84262 7.977452,-5.77464 16.150015,-9.28934 l 0.736182,-0.31652 4.206783,-0.0307 4.206784,-0.0307 0.730634,0.0564 0.730635,0.0563 -0.90591,0.34586 c -0.840908,0.32092 -3.207576,1.29229 -3.85067,1.58048 -5.101006,2.28538 -8.035239,3.92958 -10.634966,5.95925 l -0.583122,0.45524 -0.877296,0.87666 -0.877305,0.87658 -0.372497,0.54481 -0.372496,0.54489 -0.266913,0.57671 -0.26692,0.57671 -0.09395,0.38555 -0.09395,0.38547 0.0041,0.6309 0.0041,0.6309 0.191521,0.56072 c 0.232873,0.68186 0.409225,0.99184 0.954882,1.67834 l 0.419957,0.5284 0.578157,0.48689 c 0.468922,0.39499 2.214541,1.67602 4.267541,3.13196 1.229538,0.87194 6.955747,5.09054 7.140571,5.26057 l 0.102668,0.0945 -0.06762,-0.008 c -0.03717,0 -0.588193,-0.22496 -1.224476,-0.49103 l 1.6e-5,-8e-5 z m -28.045214,-1.77993 c 0,-0.019 0.01579,-0.0348 0.03507,-0.0348 0.01927,0 0.03507,0.0158 0.03507,0.0348 0,0.0199 -0.01579,0.0348 -0.03507,0.0348 -0.01927,0 -0.03507,-0.0158 -0.03507,-0.0348 z m 22.64652,-2.80383 c 0,-0.0199 0.01579,-0.0348 0.03507,-0.0348 0.01927,0 0.03507,0.0157 0.03507,0.0348 0,0.0191 -0.01579,0.0348 -0.03507,0.0348 -0.01927,0 -0.03507,-0.0157 -0.03507,-0.0348 z m -1.963169,-1.40192 c 0,-0.0199 0.01579,-0.0348 0.03507,-0.0348 0.01927,0 0.03507,0.0157 0.03507,0.0348 0,0.0191 -0.01579,0.0348 -0.03507,0.0348 -0.01927,0 -0.03507,-0.0157 -0.03507,-0.0348 z m 59.175408,-9.88377 c 0,-0.0191 0.0158,-0.0348 0.035,-0.0348 0.0193,0 0.035,0.0157 0.035,0.0348 0,0.0199 -0.0158,0.0348 -0.035,0.0348 -0.0193,0 -0.035,-0.0157 -0.035,-0.0348 z"
           id="path2846-0"
           sodipodi:nodetypes="cccccccccccccccccccccccccccccccccccccccccccccccccccccscccccccccccccccccssssssscccccccccccccccccccccccccccsccccccccccccsscccsscccsscccsscccccccccccccccccssccccccccccccccccsssscccccccsscccsscccsccccccccccccccccccccccsccccccccccccccccscccccccsscccsscccsscccsscc" />
      </g>
      <g
         style="fill:url(#radialGradient4349);fill-opacity:1;stroke-width:0.206126;stroke-miterlimit:4;stroke-dasharray:none"
         inkscape:label="Layer 1"
         id="layer1-5"
         transform="matrix(0.48514016,0,0,0.48514016,30.46679,-387.89816)">
        <path
           style="fill:url(#radialGradient4351);fill-opacity:1;stroke-width:0.206126;stroke-miterlimit:4;stroke-dasharray:none"
           d="m 93.156375,992.04097 c -11.071638,-3.86932 -22.140093,-7.74769 -33.16347,-11.75268 l -0.105171,-0.0497 36.94958,-0.0704 -0.350566,-0.13291 c -9.690749,-3.66269 -19.189763,-7.81848 -28.85705,-11.53825 -0.03556,0 -0.06455,-0.0315 -0.06455,-0.0704 l 0,-0.0696 27.519373,-0.008 C 82.708571,963.13591 69.876803,958.87406 57.80518,952.95152 l -1.030898,-0.52915 -0.443953,-0.36848 -0.443952,-0.3684 -0.201694,-0.37038 -0.201684,-0.37056 -0.03062,-0.49542 -0.03062,-0.49542 0.149447,-0.39566 0.14944,-0.39583 0.281814,-0.43584 0.281806,-0.43593 0.644885,-0.64648 0.644884,-0.64648 0.70846,-0.53196 c 2.339237,-1.75665 5.833098,-3.66277 10.316772,-5.62864 l 0.858846,-0.37652 1.384768,0.0671 c 21.225206,1.03377 40.013179,6.45335 49.607909,14.30994 l 0.57128,0.46774 0.0656,-0.0406 0.0655,-0.0406 -0.0428,0.0696 -0.0428,0.0696 0.47025,0.39184 c 0.25863,0.21552 0.92956,0.85943 1.49094,1.43101 l 1.02069,1.03915 0.47827,0.59585 c 0.26305,0.32771 0.73876,0.99018 1.05714,1.47202 l 0.57887,0.87625 0.35177,0.70092 c 0.7745,1.54344 1.18972,2.8335 1.38577,4.30568 l 0.0987,0.74135 0,0.87634 0,0.87616 -0.0995,0.73605 c -0.13597,1.00535 -0.26672,1.58198 -0.56424,2.48847 l -0.25311,0.77102 -0.48087,0.99441 -0.48086,0.99433 -0.58898,0.89829 c -0.69763,1.06393 -1.33917,1.87447 -2.29897,2.90442 l -0.70383,0.75544 -0.83445,0.73523 c -5.96118,5.25253 -14.95445,9.34261 -26.292127,11.95734 -1.779919,0.41057 -1.504026,0.39408 -2.246482,0.1334 l -1.6e-5,5e-4 0,-8e-5 z M 32.228137,991.20068 C 16.014919,987.06322 5.1048607,980.70566 1.3457314,973.20488 L 0.96799455,972.45109 0.68176628,971.62125 0.39553798,970.79131 0.25648944,970.10912 0.1174328,969.42693 0.05871641,968.61556 0,967.80419 l 0.05685367,-0.84286 0.05685368,-0.84285 0.14897769,-0.71874 C 0.89030267,962.37169 2.46962,959.68137 5.2341664,956.93131 l 0.8808189,-0.87625 0.8042851,-0.66918 c 0.4423654,-0.36807 1.0093714,-0.82471 1.2600297,-1.01471 0.2506501,-0.18992 0.4872816,-0.3708 0.5258482,-0.40187 6.3190017,-5.09601 22.0499127,-10.5929 34.7585387,-12.14587 0.527881,-0.0646 0.509027,-0.0166 -0.07013,0.17583 -1.442172,0.48092 -6.502578,2.43204 -9.062112,3.49406 -0.807208,0.33501 -3.108333,1.31699 -3.400481,1.45114 -0.115691,0.053 -0.620498,0.28247 -1.121807,0.50976 -7.431893,3.36845 -13.400889,6.87635 -17.4231,10.23941 l -0.806294,0.67415 -1.093057,1.0868 -1.0930639,1.08672 -0.5841271,0.73605 c -0.3212719,0.40477 -0.7712178,1.01985 -0.9998716,1.36695 l -0.4157446,0.6309 -0.3765624,0.77093 -0.3765625,0.7711 -0.204244,0.6309 -0.204244,0.6309 -0.1132538,0.66074 -0.1132619,0.66081 1.782e-4,0.63595 1.701e-4,0.63612 0.096862,0.59652 0.09687,0.59659 0.2159305,0.64433 0.2159388,0.6444 0.2833532,0.56345 c 0.3570119,0.70987 0.6835317,1.22468 1.2133562,1.91317 l 0.4174047,0.54249 0.072893,-0.0456 0.072892,-0.0456 -0.044223,0.0713 -0.044223,0.0713 0.5417299,0.55865 c 0.8716512,0.89904 2.0303402,1.88483 3.0657902,2.60828 1.511765,1.05631 3.863498,2.6232 3.937254,2.6232 l 0.08807,0 -0.02608,0.0423 -0.02608,0.0423 5.690826,3.79551 c 4.94354,3.29719 6.943081,4.6208 10.598732,7.01587 l 0.77125,0.50528 -0.105172,-0.008 c -0.05783,0 -0.468005,-0.0983 -0.911464,-0.21146 l 0,0 z m -4.627459,-3.60176 c 0,-0.0199 0.01579,-0.0348 0.03507,-0.0348 0.01927,0 0.03507,0.0149 0.03507,0.0348 0,0.019 -0.01579,0.0348 -0.03507,0.0348 -0.01927,0 -0.03507,-0.0158 -0.03507,-0.0348 z M 9.0207186,981.64058 c 0,-0.0191 0.015793,-0.0348 0.035066,-0.0348 0.019273,0 0.035067,0.0157 0.035067,0.0348 0,0.0199 -0.01571,0.0348 -0.035067,0.0348 -0.019273,0 -0.035066,-0.0157 -0.035066,-0.0348 z m 8.4836774,-0.77102 c 0,-0.0191 0.01579,-0.0348 0.03507,-0.0348 0.01927,0 0.03507,0.0157 0.03507,0.0348 0,0.0199 -0.01579,0.0348 -0.03507,0.0348 -0.01927,0 -0.03507,-0.0157 -0.03507,-0.0348 z m 35.372033,-3.16196 c -0.886926,-0.32862 -1.896556,-0.70373 -2.243614,-0.83366 -0.347059,-0.12984 -0.946526,-0.35124 -1.33215,-0.49186 -1.029336,-0.37544 -6.356217,-2.36534 -7.537154,-2.81568 -10.659991,-4.06481 -16.39741,-6.42352 -19.674676,-8.08844 l -1.059665,-0.53842 -0.517879,-0.35009 -0.517886,-0.35017 -0.548265,-0.54572 -0.548266,-0.54572 -0.28959,-0.42631 -0.289581,-0.42632 -0.207062,-0.52642 -0.207071,-0.52649 -0.03126,-0.73605 -0.03126,-0.73597 0.11416,-0.4907 0.114161,-0.4907 0.356534,-0.73224 0.356534,-0.73232 0.28499,-0.38928 c 0.837231,-1.14356 2.374151,-2.70531 3.491026,-3.54726 0.09964,-0.0754 0.541357,-0.40809 0.981585,-0.73986 4.330395,-3.26371 10.863287,-6.62644 20.806153,-10.70973 l 0.86488,-0.35514 0.817835,-0.10548 c 3.519517,-0.45424 10.598334,-1.0259 11.615246,-0.93823 l 0.280453,0.024 -1.016636,0.37586 c -14.575354,5.38825 -23.884633,11.5172 -25.51648,16.79931 l -0.145592,0.47131 -0.07702,0.65269 -0.07702,0.65261 0.07897,0.59304 0.07897,0.59303 0.168853,0.49633 c 0.228313,0.67117 0.62313,1.40656 1.101948,2.05254 l 0.397603,0.53636 0.548922,0.55036 c 0.748444,0.75038 1.393579,1.26429 2.767858,2.20484 1.980711,1.35568 9.348381,6.16142 10.681713,6.96749 0.127548,0.0771 0.700353,0.43759 1.272898,0.80118 0.895,0.56817 2.663149,1.66931 3.260388,2.03033 1.518091,0.91785 3.05327,1.86171 3.105685,1.90944 l 0.06657,0.0605 -0.06657,0 c -0.03661,0 -0.792274,-0.27187 -1.679208,-0.60041 l 0,8e-5 z m 0.245401,-0.48316 c 0,-0.0191 0.01571,-0.0348 0.03507,-0.0348 0.01927,0 0.03507,0.0157 0.03507,0.0348 0,0.0191 -0.01571,0.0348 -0.03507,0.0348 -0.01927,0 -0.03507,-0.0157 -0.03507,-0.0348 z M 9.7218489,974.98132 c 0,-0.019 0.015793,-0.0348 0.035067,-0.0348 0.019273,0 0.035067,0.0166 0.035067,0.0348 0,0.0199 -0.015793,0.0348 -0.035067,0.0348 -0.019273,0 -0.035067,-0.0166 -0.035067,-0.0348 z m 52.1641061,-8.87486 c -3.861215,-1.61462 -5.592847,-2.3476 -8.764125,-3.70975 -2.546582,-1.09376 -5.05817,-2.20599 -7.291758,-3.22883 -1.1825,-0.54157 -3.491553,-1.73004 -3.999219,-2.05833 l -0.493704,-0.31927 -0.478008,-0.47794 -0.478016,-0.47785 -0.272865,-0.55194 -0.27285,-0.55193 -0.02559,-0.56088 -0.0256,-0.56072 0.08462,-0.3892 0.08462,-0.38919 0.240487,-0.50595 0.240478,-0.50595 0.412659,-0.54555 0.412642,-0.54547 0.690085,-0.68111 c 2.879986,-2.84262 7.977452,-5.77464 16.150015,-9.28934 l 0.736182,-0.31652 4.206783,-0.0307 4.206784,-0.0307 0.730634,0.0564 0.730635,0.0563 -0.90591,0.34586 c -0.840908,0.32092 -3.207576,1.29229 -3.85067,1.58048 -5.101006,2.28538 -8.035239,3.92958 -10.634966,5.95925 l -0.583122,0.45524 -0.877296,0.87666 -0.877305,0.87658 -0.372497,0.54481 -0.372496,0.54489 -0.266913,0.57671 -0.26692,0.57671 -0.09395,0.38555 -0.09395,0.38547 0.0041,0.6309 0.0041,0.6309 0.191521,0.56072 c 0.232873,0.68186 0.409225,0.99184 0.954882,1.67834 l 0.419957,0.5284 0.578157,0.48689 c 0.468922,0.39499 2.214541,1.67602 4.267541,3.13196 1.229538,0.87194 6.955747,5.09054 7.140571,5.26057 l 0.102668,0.0945 -0.06762,-0.008 c -0.03717,0 -0.588193,-0.22496 -1.224476,-0.49103 l 1.6e-5,-8e-5 z m -28.045214,-1.77993 c 0,-0.019 0.01579,-0.0348 0.03507,-0.0348 0.01927,0 0.03507,0.0158 0.03507,0.0348 0,0.0199 -0.01579,0.0348 -0.03507,0.0348 -0.01927,0 -0.03507,-0.0158 -0.03507,-0.0348 z m 22.64652,-2.80383 c 0,-0.0199 0.01579,-0.0348 0.03507,-0.0348 0.01927,0 0.03507,0.0157 0.03507,0.0348 0,0.0191 -0.01579,0.0348 -0.03507,0.0348 -0.01927,0 -0.03507,-0.0157 -0.03507,-0.0348 z m -1.963169,-1.40192 c 0,-0.0199 0.01579,-0.0348 0.03507,-0.0348 0.01927,0 0.03507,0.0157 0.03507,0.0348 0,0.0191 -0.01579,0.0348 -0.03507,0.0348 -0.01927,0 -0.03507,-0.0157 -0.03507,-0.0348 z m 59.175408,-9.88377 c 0,-0.0191 0.0158,-0.0348 0.035,-0.0348 0.0193,0 0.035,0.0157 0.035,0.0348 0,0.0199 -0.0158,0.0348 -0.035,0.0348 -0.0193,0 -0.035,-0.0157 -0.035,-0.0348 z"
           id="path2846"
           sodipodi:nodetypes="cccccccccccccccccccccccccccccccccccccccccccccccccccccscccccccccccccccccssssssscccccccccccccccccccccccccccsccccccccccccsscccsscccsscccsscccccccccccccccccssccccccccccccccccsssscccccccsscccsscccsccccccccccccccccccccccsccccccccccccccccscccccccsscccsscccsscccsscc" />
      </g>
      <path
         clip-path="url(#clipPath4320)"
         sodipodi:nodetypes="ccsc"
         id="path4086"
         d="M 82.375,94.9375 C 71.783754,87.549067 65.125381,103.50858 55,94.9375 55,87.378102 61.128102,81.25 68.6875,81.25 c 7.559398,0 13.6875,6.128102 13.6875,13.6875 z"
         style="opacity:0.37280704;fill:#ffffff;fill-opacity:1;filter:url(#filter4093)"
         transform="matrix(2.6616149,0,0,1.2047054,-121.30393,-32.108125)" />
    </g>
  </g>
</svg>
